PathFileType	4	(X/Y/Z)	S240501-1155_P07_T01_0-394.trc
DataRate	CameraRate	NumFrames	NumMarkers	Units	OrigDataRate	OrigDataStartFrame	OrigNumFrames
60.0	60.0	21	13	m	60.0	295	394
Frame#	Time	Nose			LEye			LEar			LShoulder			LElbow			LWrist			LHip			REye			REar			RShoulder			RElbow			RWrist			RHip		
		X1	Y1	Z1	X2	Y2	Z2	X3	Y3	Z3	X4	Y4	Z4	X5	Y5	Z5	X6	Y6	Z6	X7	Y7	Z7	X8	Y8	Z8	X9	Y9	Z9	X10	Y10	Z10	X11	Y11	Z11	X12	Y12	Z12	X13	Y13	Z13

296	4.933	-0.05592	1.66806	0.17094	-0.08174	1.63416	0.19085	-0.05404	1.58086	0.28858	0.10826	1.50874	0.27940	0.30060	1.47781	0.13476	0.13313	1.60304	0.04405	0.53366	1.60220	0.21426	-0.08578	1.69752	0.19142	-0.06713	1.74807	0.28930	0.10204	1.83285	0.32051	0.32844	1.92660	0.25227	0.32281	1.90156	0.04145	0.52496	1.81811	0.21622
297	4.950	-0.05602	1.66869	0.17129	-0.08188	1.63515	0.19119	-0.05408	1.58092	0.28892	0.10863	1.50794	0.27805	0.30120	1.47754	0.13377	0.13596	1.60257	0.03661	0.53366	1.60220	0.21426	-0.08615	1.69818	0.19179	-0.06731	1.74883	0.28980	0.10226	1.83358	0.32089	0.32880	1.92657	0.25253	0.32256	1.90159	0.04163	0.52496	1.81811	0.21622
298	4.967	-0.05611	1.66936	0.17166	-0.08200	1.63623	0.19157	-0.05411	1.58097	0.28914	0.10891	1.50716	0.27681	0.30177	1.47737	0.13251	0.13932	1.60182	0.02878	0.53366	1.60220	0.21426	-0.08646	1.69896	0.19214	-0.06749	1.74927	0.29052	0.10249	1.83393	0.32153	0.32908	1.92653	0.25282	0.32233	1.90173	0.04198	0.52496	1.81811	0.21622
299	4.983	-0.05622	1.67005	0.17199	-0.08209	1.63731	0.19199	-0.05417	1.58109	0.28920	0.10917	1.50646	0.27588	0.30221	1.47731	0.13122	0.14321	1.60086	0.02086	0.53366	1.60220	0.21426	-0.08672	1.69976	0.19246	-0.06767	1.74948	0.29135	0.10274	1.83384	0.32204	0.32931	1.92651	0.25315	0.32224	1.90201	0.04252	0.52496	1.81811	0.21622
300	5.000	-0.05635	1.67070	0.17219	-0.08214	1.63826	0.19239	-0.05426	1.58134	0.28913	0.10945	1.50589	0.27539	0.30245	1.47730	0.13010	0.14766	1.59982	0.01306	0.53366	1.60220	0.21426	-0.08694	1.70046	0.19273	-0.06782	1.74958	0.29214	0.10301	1.83351	0.32209	0.32952	1.92651	0.25358	0.32229	1.90249	0.04315	0.52496	1.81811	0.21622
301	5.017	-0.05651	1.67131	0.17218	-0.08215	1.63901	0.19265	-0.05439	1.58175	0.28900	0.10976	1.50542	0.27534	0.30250	1.47735	0.12914	0.15264	1.59880	0.00549	0.53366	1.60220	0.21426	-0.08714	1.70097	0.19298	-0.06792	1.74964	0.29276	0.10326	1.83323	0.32157	0.32972	1.92655	0.25423	0.32243	1.90309	0.04368	0.52496	1.81811	0.21622
302	5.033	-0.05674	1.67191	0.17196	-0.08213	1.63953	0.19278	-0.05457	1.58227	0.28895	0.11003	1.50502	0.27558	0.30242	1.47754	0.12826	0.15808	1.59784	-0.00178	0.53366	1.60220	0.21426	-0.08733	1.70124	0.19321	-0.06793	1.74972	0.29321	0.10340	1.83320	0.32057	0.32984	1.92658	0.25523	0.32256	1.90365	0.04386	0.52496	1.81811	0.21622
303	5.050	-0.05710	1.67257	0.17162	-0.08211	1.63983	0.19287	-0.05477	1.58285	0.28907	0.11021	1.50469	0.27586	0.30225	1.47799	0.12736	0.16381	1.59707	-0.00870	0.53366	1.60220	0.21426	-0.08753	1.70131	0.19342	-0.06786	1.74986	0.29357	0.10339	1.83349	0.31929	0.32986	1.92657	0.25671	0.32255	1.90401	0.04345	0.52496	1.81811	0.21622
304	5.067	-0.05762	1.67335	0.17131	-0.08210	1.63997	0.19305	-0.05504	1.58338	0.28932	0.11026	1.50449	0.27602	0.30196	1.47874	0.12646	0.16968	1.59668	-0.01521	0.53366	1.60220	0.21426	-0.08776	1.70133	0.19358	-0.06772	1.75009	0.29384	0.10327	1.83408	0.31791	0.32974	1.92652	0.25869	0.32229	1.90413	0.04241	0.52496	1.81811	0.21622
305	5.083	-0.05824	1.67419	0.17117	-0.08218	1.64004	0.19338	-0.05543	1.58378	0.28942	0.11022	1.50440	0.27604	0.30157	1.47969	0.12556	0.17558	1.59676	-0.02133	0.53366	1.60220	0.21426	-0.08803	1.70145	0.19367	-0.06751	1.75034	0.29397	0.10313	1.83485	0.31663	0.32948	1.92650	0.26092	0.32180	1.90408	0.04090	0.52496	1.81811	0.21622
306	5.100	-0.05884	1.67494	0.17125	-0.08241	1.64012	0.19379	-0.05598	1.58403	0.28916	0.11016	1.50438	0.27594	0.30108	1.48070	0.12460	0.18144	1.59721	-0.02715	0.53366	1.60220	0.21426	-0.08829	1.70180	0.19377	-0.06725	1.75061	0.29388	0.10306	1.83568	0.31563	0.32910	1.92654	0.26297	0.32123	1.90386	0.03921	0.52496	1.81811	0.21622
307	5.117	-0.05934	1.67552	0.17154	-0.08283	1.64022	0.19418	-0.05666	1.58421	0.28855	0.11013	1.50440	0.27568	0.30051	1.48167	0.12354	0.18726	1.59778	-0.03280	0.53366	1.60220	0.21426	-0.08851	1.70237	0.19398	-0.06696	1.75089	0.29363	0.10310	1.83642	0.31500	0.32871	1.92665	0.26454	0.32079	1.90347	0.03758	0.52496	1.81811	0.21622
308	5.133	-0.05975	1.67593	0.17192	-0.08343	1.64035	0.19451	-0.05737	1.58454	0.28786	0.11019	1.50446	0.27520	0.29988	1.48255	0.12243	0.19308	1.59821	-0.03845	0.53366	1.60220	0.21426	-0.08863	1.70306	0.19437	-0.06672	1.75121	0.29333	0.10325	1.83699	0.31467	0.32844	1.92682	0.26556	0.32053	1.90290	0.03611	0.52496	1.81811	0.21622
309	5.150	-0.06000	1.67627	0.17220	-0.08414	1.64050	0.19477	-0.05799	1.58508	0.28736	0.11041	1.50459	0.27453	0.29918	1.48334	0.12136	0.19891	1.59842	-0.04427	0.53366	1.60220	0.21426	-0.08863	1.70375	0.19488	-0.06660	1.75154	0.29305	0.10353	1.83737	0.31449	0.32838	1.92703	0.26618	0.32032	1.90220	0.03478	0.52496	1.81811	0.21622
310	5.167	-0.06009	1.67663	0.17227	-0.08486	1.64067	0.19500	-0.05841	1.58573	0.28715	0.11078	1.50481	0.27377	0.29826	1.48404	0.12037	0.20468	1.59854	-0.05029	0.53366	1.60220	0.21426	-0.08851	1.70441	0.19543	-0.06669	1.75185	0.29278	0.10388	1.83759	0.31430	0.32852	1.92720	0.26663	0.32003	1.90147	0.03353	0.52496	1.81811	0.21622
311	5.183	-0.06005	1.67706	0.17219	-0.08547	1.64082	0.19516	-0.05857	1.58636	0.28717	0.11121	1.50515	0.27295	0.29695	1.48468	0.11944	0.21034	1.59880	-0.05635	0.53366	1.60220	0.21426	-0.08832	1.70512	0.19589	-0.06696	1.75209	0.29253	0.10420	1.83775	0.31396	0.32877	1.92727	0.26707	0.31970	1.90082	0.03248	0.52496	1.81811	0.21622
312	5.200	-0.05996	1.67753	0.17208	-0.08586	1.64101	0.19518	-0.05855	1.58687	0.28733	0.11159	1.50566	0.27210	0.29528	1.48539	0.11847	0.21583	1.59935	-0.06214	0.53366	1.60220	0.21426	-0.08812	1.70597	0.19615	-0.06732	1.75228	0.29238	0.10439	1.83792	0.31340	0.32899	1.92721	0.26751	0.31948	1.90034	0.03206	0.52496	1.81811	0.21622
313	5.217	-0.05992	1.67804	0.17207	-0.08602	1.64135	0.19504	-0.05851	1.58726	0.28751	0.11182	1.50625	0.27126	0.29353	1.48627	0.11734	0.22105	1.60025	-0.06738	0.53366	1.60220	0.21426	-0.08800	1.70698	0.19618	-0.06769	1.75248	0.29243	0.10444	1.83817	0.31271	0.32906	1.92700	0.26793	0.31958	1.90011	0.03280	0.52496	1.81811	0.21622
314	5.233	-0.05999	1.67854	0.17214	-0.08605	1.64196	0.19476	-0.05862	1.58754	0.28758	0.11195	1.50670	0.27049	0.29203	1.48736	0.11589	0.22595	1.60138	-0.07207	0.53366	1.60220	0.21426	-0.08799	1.70806	0.19603	-0.06801	1.75273	0.29277	0.10438	1.83848	0.31219	0.32897	1.92664	0.26834	0.32010	1.90015	0.03486	0.52496	1.81811	0.21622
315	5.250	-0.06023	1.67896	0.17222	-0.08607	1.64285	0.19443	-0.05893	1.58778	0.28744	0.11208	1.50686	0.26978	0.29086	1.48865	0.11399	0.23045	1.60250	-0.07651	0.53366	1.60220	0.21426	-0.08807	1.70904	0.19588	-0.06821	1.75300	0.29333	0.10430	1.83874	0.31215	0.32879	1.92614	0.26873	0.32094	1.90050	0.03762	0.52496	1.81811	0.21622
316	5.267	-0.06058	1.67927	0.17231	-0.08615	1.64393	0.19422	-0.05940	1.58806	0.28707	0.11226	1.50672	0.26916	0.28997	1.49006	0.11166	0.23461	1.60342	-0.08095	0.53366	1.60220	0.21426	-0.08816	1.70978	0.19587	-0.06825	1.75320	0.29396	0.10430	1.83884	0.31278	0.32861	1.92556	0.26901	0.32184	1.90121	0.03991	0.52496	1.81811	0.21622
